<svg version="1.1" id="Layer_1" xmlns="http://www.w3.org/2000/svg" xmlns:xlink="http://www.w3.org/1999/xlink" x="0px" y="0px"
	 width="100%" viewBox="0 0 249 352" enable-background="new 0 0 249 352" xml:space="preserve">
<path fill="#F3E4C5" opacity="1.000000" stroke="none" 
	d="
M1.000000,352.000000 
	C1.000000,235.085617 1.000000,118.171249 1.000000,1.000000 
	C83.020714,1.000000 165.041702,1.000000 247.533386,1.468654 
	C248.004639,116.341606 248.005493,230.745911 248.005051,345.150208 
	C248.005020,351.974640 248.000107,351.980072 241.298798,351.980713 
	C161.199203,351.988159 81.099602,351.993866 1.000000,352.000000 
M23.285454,152.121475 
	C23.271164,208.592758 23.243273,265.064026 23.257406,321.535309 
	C23.259501,329.904633 28.304140,335.093140 36.443745,335.097656 
	C91.082809,335.128021 145.721893,335.115082 200.360977,335.116180 
	C204.374115,335.116272 208.412262,334.830994 212.394775,335.180267 
	C219.134933,335.771362 225.362885,334.939056 228.481598,328.205780 
	C229.915161,325.110748 229.718826,321.223053 230.063858,317.675598 
	C230.272522,315.530304 229.969772,313.338318 230.130219,311.184692 
	C230.439743,307.030487 230.128418,303.390472 225.874817,300.962769 
	C224.677353,300.279327 223.741821,297.766388 224.005402,296.335602 
	C224.209244,295.229065 226.471848,294.501831 228.083435,294.085968 
	C228.778076,294.278198 229.472702,294.470428 230.167343,294.662659 
	C230.199051,294.135284 230.230743,293.607910 230.173813,292.137634 
	C230.176773,234.402176 230.179733,176.666702 230.631485,118.450569 
	C230.502365,116.995667 230.373230,115.540756 230.162933,113.141617 
	C230.142609,101.540764 230.116531,89.939919 230.103836,78.339058 
	C230.094284,69.606049 230.101517,69.609383 221.803497,68.530624 
	C221.493149,68.490280 221.207794,68.257851 220.947388,67.350060 
	C220.914444,66.840591 220.881500,66.331123 221.514496,65.397896 
	C225.643097,65.148613 230.103455,65.293274 229.638306,58.710472 
	C229.830338,57.550823 230.022369,56.391171 230.155502,54.267254 
	C230.137024,48.435593 230.121353,42.603924 230.099457,36.772278 
	C230.056000,25.195208 225.969833,21.063015 214.503510,21.061806 
	C156.184235,21.055658 97.864952,21.058893 39.545677,21.059742 
	C38.379318,21.059759 37.209679,21.015882 36.047127,21.085388 
	C28.302565,21.548405 23.302124,26.487226 23.288261,34.289349 
	C23.235268,64.113602 23.339664,93.938133 23.165461,124.617699 
	C23.235712,125.490013 23.305962,126.362335 23.296753,128.071472 
	C23.050938,132.276306 23.090380,136.071991 27.258722,139.026611 
	C29.869040,140.876892 27.949308,148.331772 24.898949,149.605194 
	C24.898949,147.312332 24.898949,145.019470 24.898949,142.726593 
	C24.381523,142.742676 23.864098,142.758743 23.346672,142.774811 
	C23.346672,145.588287 23.346672,148.401749 23.285454,152.121475 
z"/>
<path fill="#F5F6F7" opacity="1.000000" stroke="none" 
	d="
M1.000000,352.500000 
	C81.099602,351.993866 161.199203,351.988159 241.298798,351.980713 
	C248.000107,351.980072 248.005020,351.974640 248.005051,345.150208 
	C248.005493,230.745911 248.004639,116.341606 248.002045,1.468652 
	C248.666672,1.333330 249.783676,1.548018 249.909042,2.023957 
	C250.196457,3.114906 250.000000,4.333332 250.000000,5.499998 
	C250.000000,121.333298 250.000000,237.166611 250.000000,352.999939 
	C167.000000,353.000000 84.000000,353.000000 1.000000,352.500000 
z"/>
<path fill="#6B9AA4" opacity="1.000000" stroke="none" 
	d="
M230.182693,118.931236 
	C230.179733,176.666702 230.176773,234.402176 229.801270,292.651825 
	C228.892212,293.312683 228.355713,293.459320 227.819214,293.605988 
	C226.471848,294.501831 224.209244,295.229065 224.005402,296.335602 
	C223.741821,297.766388 224.677353,300.279327 225.874817,300.962769 
	C230.128418,303.390472 230.439743,307.030487 230.130219,311.184692 
	C229.969772,313.338318 230.272522,315.530304 230.063858,317.675598 
	C229.718826,321.223053 229.915161,325.110748 228.481598,328.205780 
	C225.362885,334.939056 219.134933,335.771362 212.394775,335.180267 
	C208.412262,334.830994 204.374115,335.116272 200.360977,335.116180 
	C145.721893,335.115082 91.082809,335.128021 36.443745,335.097656 
	C28.304140,335.093140 23.259501,329.904633 23.257406,321.535309 
	C23.243273,265.064026 23.271164,208.592758 23.521141,151.623474 
	C24.126192,150.939316 24.495556,150.753143 24.864922,150.566971 
	C27.949308,148.331772 29.869040,140.876892 27.258722,139.026611 
	C23.090380,136.071991 23.050938,132.276306 23.691069,127.600388 
	C24.999416,126.626122 25.913448,126.122940 26.827482,125.619759 
	C25.680088,125.000694 24.532694,124.381630 23.385296,123.762566 
	C23.339664,93.938133 23.235268,64.113602 23.288261,34.289349 
	C23.302124,26.487226 28.302565,21.548405 36.047127,21.085388 
	C37.209679,21.015882 38.379318,21.059759 39.545677,21.059742 
	C97.864952,21.058893 156.184235,21.055658 214.503510,21.061806 
	C225.969833,21.063015 230.056000,25.195208 230.099457,36.772278 
	C230.121353,42.603924 230.137024,48.435593 229.795929,54.718590 
	C228.615112,55.470371 227.793884,55.770817 226.972641,56.071255 
	C227.691589,57.042492 228.410538,58.013729 229.129471,58.984970 
	C230.103455,65.293274 225.643097,65.148613 220.908752,65.692001 
	C220.505600,66.695709 220.708191,67.405319 220.910782,68.114929 
	C221.207794,68.257851 221.493149,68.490280 221.803497,68.530624 
	C230.101517,69.609383 230.094284,69.606049 230.103836,78.339058 
	C230.116531,89.939919 230.142609,101.540764 229.829620,113.581863 
	C228.112900,114.301582 226.396729,114.195450 225.465546,114.999008 
	C224.866409,115.516037 225.047897,118.253654 225.529526,118.457092 
	C226.902405,119.036980 228.608002,118.829132 230.182693,118.931236 
M206.892105,315.141266 
	C207.484406,316.348419 208.076721,317.555573 208.669022,318.762726 
	C209.139023,318.604431 209.609024,318.446136 210.079025,318.287842 
	C209.913239,316.758118 209.747467,315.228394 209.683762,312.807983 
	C209.707626,234.150269 209.731506,155.492569 209.755234,76.834854 
	C209.755280,76.668213 209.737869,76.500038 209.754318,76.335144 
	C210.077591,73.093552 208.608322,71.889572 205.383316,71.961945 
	C198.720749,72.111450 192.048965,71.876038 185.387924,72.055954 
	C182.195663,72.142189 180.915771,71.169678 181.016083,67.817192 
	C181.220337,60.990704 180.796616,54.138306 181.173996,47.326633 
	C181.423492,42.823277 179.883850,41.759113 175.538177,41.775398 
	C133.543137,41.932804 91.546951,41.945114 49.552116,41.762596 
	C44.942062,41.742561 44.054890,43.274075 44.095146,47.495228 
	C44.293797,68.324501 44.185848,89.156693 44.186058,109.987854 
	C44.186077,111.935715 44.186058,113.883568 44.186058,115.764030 
	C36.504047,116.453102 36.259037,116.859955 39.718079,123.045624 
	C42.862995,128.669556 44.382214,134.401474 44.347874,141.096786 
	C44.062386,196.756180 44.185104,252.417694 44.187054,308.078552 
	C44.187290,314.796722 44.194355,314.801056 51.108482,314.801880 
	C70.939751,314.804260 90.773056,314.953033 110.600685,314.684418 
	C114.908051,314.626099 117.477112,317.559967 120.762939,318.558197 
	C123.461327,319.377960 127.368362,314.967346 130.774521,314.908966 
	C156.089157,314.475281 181.412506,314.549591 206.892105,315.141266 
M196.488190,68.015747 
	C200.182678,68.015747 203.877151,68.015747 206.338211,68.015747 
	C199.530182,60.689602 192.585526,53.216431 185.085892,45.146038 
	C185.085892,49.701626 185.085892,53.624317 185.085892,57.547012 
	C185.085861,68.015549 185.085861,68.015549 196.488190,68.015747 
M41.644642,223.135284 
	C42.654663,220.348373 41.429905,219.664658 38.783989,219.674576 
	C36.844395,219.681854 34.902313,219.027359 33.176998,218.707764 
	C37.085648,224.013809 36.332073,225.993866 29.843746,227.210785 
	C28.528833,227.457413 27.347095,228.414093 25.429604,229.384827 
	C34.070690,232.670471 38.020935,231.055466 41.644642,223.135284 
z"/>
<path fill="#C4C9B9" opacity="1.000000" stroke="none" 
	d="
M230.407089,118.690903 
	C228.608002,118.829132 226.902405,119.036980 225.529526,118.457092 
	C225.047897,118.253654 224.866409,115.516037 225.465546,114.999008 
	C226.396729,114.195450 228.112900,114.301582 229.870209,114.053986 
	C230.373230,115.540756 230.502365,116.995667 230.407089,118.690903 
z"/>
<path fill="#A9BDB3" opacity="1.000000" stroke="none" 
	d="
M24.881935,150.086090 
	C24.495556,150.753143 24.126192,150.939316 23.551750,151.170349 
	C23.346672,148.401749 23.346672,145.588287 23.346672,142.774811 
	C23.864098,142.758743 24.381523,142.742676 24.898949,142.726593 
	C24.898949,145.019470 24.898949,147.312332 24.881935,150.086090 
z"/>
<path fill="#C4C9B9" opacity="1.000000" stroke="none" 
	d="
M229.383881,58.847717 
	C228.410538,58.013729 227.691589,57.042492 226.972641,56.071255 
	C227.793884,55.770817 228.615112,55.470371 229.825378,55.200722 
	C230.022369,56.391171 229.830338,57.550823 229.383881,58.847717 
z"/>
<path fill="#A9BDB3" opacity="1.000000" stroke="none" 
	d="
M23.275379,124.190132 
	C24.532694,124.381630 25.680088,125.000694 26.827482,125.619759 
	C25.913448,126.122940 24.999416,126.626122 23.730797,127.181976 
	C23.305962,126.362335 23.235712,125.490013 23.275379,124.190132 
z"/>
<path fill="#C4C9B9" opacity="1.000000" stroke="none" 
	d="
M227.951324,293.845978 
	C228.355713,293.459320 228.892212,293.312683 229.845581,293.123291 
	C230.230743,293.607910 230.199051,294.135284 230.167343,294.662659 
	C229.472702,294.470428 228.778076,294.278198 227.951324,293.845978 
z"/>
<path fill="#C4C9B9" opacity="1.000000" stroke="none" 
	d="
M220.929077,67.732498 
	C220.708191,67.405319 220.505600,66.695709 220.575790,65.903877 
	C220.881500,66.331123 220.914444,66.840591 220.929077,67.732498 
z"/>
<path fill="#F0E2C4" opacity="1.000000" stroke="none" 
	d="
M206.733109,314.464417 
	C181.412506,314.549591 156.089157,314.475281 130.774521,314.908966 
	C127.368362,314.967346 123.461327,319.377960 120.762939,318.558197 
	C117.477112,317.559967 114.908051,314.626099 110.600685,314.684418 
	C90.773056,314.953033 70.939751,314.804260 51.108482,314.801880 
	C44.194355,314.801056 44.187290,314.796722 44.187054,308.078552 
	C44.185104,252.417694 44.062386,196.756180 44.347874,141.096786 
	C44.382214,134.401474 42.862995,128.669556 39.718079,123.045624 
	C36.259037,116.859955 36.504047,116.453102 44.186058,115.764030 
	C44.186058,113.883568 44.186077,111.935715 44.186058,109.987854 
	C44.185848,89.156693 44.293797,68.324501 44.095146,47.495228 
	C44.054890,43.274075 44.942062,41.742561 49.552116,41.762596 
	C91.546951,41.945114 133.543137,41.932804 175.538177,41.775398 
	C179.883850,41.759113 181.423492,42.823277 181.173996,47.326633 
	C180.796616,54.138306 181.220337,60.990704 181.016083,67.817192 
	C180.915771,71.169678 182.195663,72.142189 185.387924,72.055954 
	C192.048965,71.876038 198.720749,72.111450 205.383316,71.961945 
	C208.608322,71.889572 210.077591,73.093552 209.754318,76.335144 
	C209.737869,76.500038 209.755280,76.668213 209.755234,76.834854 
	C209.731506,155.492569 209.707626,234.150269 209.276352,313.331421 
	C208.156998,314.058014 207.445053,314.261200 206.733109,314.464417 
M104.721169,66.817734 
	C100.559593,63.811539 96.398018,60.805340 92.236443,57.799145 
	C91.930267,58.154556 91.624084,58.509964 91.317909,58.865376 
	C94.522263,66.543678 101.591125,72.650162 101.304268,81.770531 
	C100.883743,81.906921 100.727966,81.948486 100.578918,82.007118 
	C98.163284,82.957520 94.319313,83.333412 93.650826,84.990181 
	C92.495827,87.852692 91.564835,92.060760 96.337662,93.868050 
	C96.843788,94.059700 97.177330,95.238525 97.239685,95.988586 
	C97.870438,103.576233 102.640961,107.106033 109.530678,108.251801 
	C114.332657,109.050369 116.386803,111.469498 116.892136,116.399727 
	C117.718643,124.463669 123.916069,128.153107 131.639877,125.865807 
	C132.218445,125.694466 133.039749,125.428185 133.431992,125.686401 
	C136.661118,127.812103 139.577087,127.255280 141.648605,124.267860 
	C144.194107,120.596855 140.893494,118.620216 138.763977,116.426285 
	C137.953217,115.590996 137.123123,114.771217 136.260422,113.990128 
	C131.665543,109.829910 127.057518,105.684204 122.108032,101.221489 
	C129.873596,96.566284 134.433350,91.382889 138.485199,85.259476 
	C143.565231,77.582230 149.960510,70.784744 155.559006,63.433071 
	C156.666229,61.979118 156.735413,59.734692 157.283310,57.854801 
	C155.436340,57.930740 153.414215,57.544331 151.773865,58.165718 
	C145.872116,60.401379 140.223846,63.355225 134.245270,65.326355 
	C127.162872,67.661423 122.337128,72.159157 118.798576,78.492134 
	C117.646500,80.554016 115.978409,82.327576 114.250465,84.626678 
	C110.982925,78.280495 108.141830,72.762527 104.721169,66.817734 
M165.500000,285.178162 
	C130.559784,285.178009 95.619438,285.144897 60.679703,285.274536 
	C58.922119,285.281067 57.169762,286.695465 55.414967,287.454346 
	C57.116753,288.274658 58.816433,289.806366 60.520634,289.811401 
	C104.777817,289.942322 149.035538,289.937683 193.292801,289.818298 
	C194.843689,289.814087 196.390747,288.395630 197.939590,287.636322 
	C196.444351,286.816925 194.965805,285.326172 193.451111,285.288452 
	C184.472061,285.065033 175.484619,285.178467 165.500000,285.178162 
M128.500000,277.760559 
	C149.493240,277.760559 170.486496,277.764252 191.479736,277.752838 
	C192.975159,277.752014 194.559830,277.917999 195.932037,277.475891 
	C196.741226,277.215149 197.518295,275.971436 197.707108,275.046722 
	C197.799515,274.594238 196.609085,273.597900 195.831467,273.323761 
	C194.937149,273.008514 193.857254,273.204559 192.857956,273.204498 
	C148.872131,273.201874 104.886299,273.201385 60.900471,273.205872 
	C59.735352,273.205994 58.491707,273.025024 57.431454,273.374207 
	C56.664970,273.626617 55.531605,274.757111 55.643551,275.250763 
	C55.847401,276.149689 56.715084,277.270081 57.560257,277.562469 
	C58.759899,277.977478 60.189758,277.756165 61.521252,277.756531 
	C83.514168,277.762329 105.507080,277.760223 128.500000,277.760559 
M89.499969,253.700821 
	C117.945534,253.700531 146.391342,253.744537 174.836014,253.585220 
	C176.468292,253.576080 178.091293,251.908875 179.718597,251.013351 
	C178.253906,250.352631 176.790817,249.118881 175.324326,249.114838 
	C136.898163,249.008926 98.471573,249.006378 60.045502,249.128067 
	C58.672779,249.132416 57.304630,250.581131 55.934353,251.356674 
	C57.307709,252.137909 58.667446,253.566757 60.056602,253.595963 
	C69.534264,253.795197 79.018112,253.700150 89.499969,253.700821 
M113.500000,224.945755 
	C96.350723,224.945755 79.201447,224.944565 62.052174,224.948044 
	C60.720566,224.948318 59.342026,224.779587 58.074860,225.074371 
	C57.307144,225.252975 56.711872,226.172821 56.039127,226.759644 
	C56.741703,227.477295 57.326675,228.468552 58.180050,228.835388 
	C59.027184,229.199524 60.144466,228.945038 61.143272,228.945068 
	C104.932220,228.946503 148.721161,228.946732 192.510117,228.942474 
	C193.674484,228.942368 194.912491,229.122833 195.977707,228.783920 
	C196.706253,228.552124 197.680817,227.543594 197.655579,226.918274 
	C197.629105,226.262634 196.632263,225.286423 195.894943,225.099533 
	C194.638245,224.780975 193.252853,224.949142 191.921524,224.948929 
	C166.114349,224.944702 140.307175,224.945709 113.500000,224.945755 
M154.500000,297.893311 
	C123.196846,297.893555 91.893616,297.868286 60.590805,297.971558 
	C59.069874,297.976562 57.552662,299.109985 56.033722,299.717957 
	C57.570122,300.473389 59.104786,301.884766 60.643173,301.888855 
	C104.933510,302.006287 149.224274,302.001953 193.514664,301.895416 
	C194.946976,301.891968 196.376205,300.610535 197.806870,299.924866 
	C196.359055,299.248657 194.918228,298.003418 193.462311,297.985535 
	C180.809753,297.829742 168.154465,297.894135 154.500000,297.893311 
M170.500000,241.032669 
	C177.991425,241.032440 185.486130,241.149414 192.971680,240.939499 
	C194.597717,240.893906 196.190903,239.676407 197.799225,238.998627 
	C196.192581,238.324814 194.599945,237.613617 192.969940,237.001999 
	C192.532043,236.837692 191.980408,236.976074 191.480988,236.976074 
	C148.363663,236.975922 105.246338,236.975647 62.129017,236.976715 
	C60.963818,236.976746 59.737793,236.769165 58.651760,237.066345 
	C57.702423,237.326111 56.910583,238.161453 56.049152,238.742523 
	C56.908569,239.495941 57.657673,240.596786 58.655689,240.913666 
	C59.868244,241.298676 61.290676,241.031311 62.622311,241.031372 
	C98.248207,241.032990 133.874100,241.032715 170.500000,241.032669 
M89.022888,164.982590 
	C87.593102,167.712097 86.163315,170.441589 84.641304,173.347168 
	C85.937660,173.889572 86.523323,174.292450 87.149353,174.370163 
	C90.447678,174.779572 93.760422,175.071869 97.060120,175.471237 
	C101.598541,176.020538 105.589256,173.474335 105.898872,168.990158 
	C106.158195,165.234314 105.360100,161.405457 104.875702,155.830551 
	C107.897247,150.208176 104.602844,144.532257 96.079689,144.201431 
	C94.917938,144.156342 93.679375,144.213547 92.616447,143.832581 
	C88.601540,142.393585 86.722672,144.051254 86.611649,147.721436 
	C87.798309,149.681000 88.780708,151.600891 88.947449,153.589172 
	C89.238846,157.063950 89.028793,160.580765 89.022888,164.982590 
M166.931900,143.836807 
	C164.335007,143.034119 162.330002,143.607071 161.357513,146.347504 
	C159.501266,151.578354 157.671494,156.818726 155.875916,162.070602 
	C155.728287,162.502411 155.735321,163.332504 155.990036,163.504578 
	C159.722839,166.026505 158.416229,169.931519 158.973755,173.376160 
	C159.125793,174.315430 160.978638,175.735153 161.869507,175.612839 
	C163.053513,175.450302 164.678192,174.172104 165.002747,173.051529 
	C165.538437,171.201874 164.747238,168.935623 165.391327,167.163300 
	C165.713440,166.276855 167.971527,166.093964 169.354004,165.592865 
	C169.595673,167.029556 170.167297,168.502396 170.014648,169.895889 
	C169.620377,173.494934 171.371048,175.574188 174.618851,175.525681 
	C176.507385,175.497467 178.370605,173.776031 180.245224,172.816483 
	C179.739365,172.481384 179.233521,172.146271 178.727661,171.811157 
	C178.096039,169.448257 177.140335,167.116241 176.911514,164.714951 
	C176.596893,161.413284 176.837814,158.059189 176.831116,154.727570 
	C176.814957,146.694275 175.821503,145.519226 166.931900,143.836807 
M137.679657,143.828110 
	C134.127670,143.469254 130.884354,143.627655 130.864502,148.119156 
	C132.247055,150.092789 133.663269,152.134399 133.777710,154.246552 
	C134.101440,160.221283 133.958313,166.226013 133.860565,172.216660 
	C133.819794,174.714432 134.748260,176.367767 137.257629,175.644547 
	C138.479828,175.292282 139.847672,173.564682 140.127182,172.243393 
	C140.598648,170.014587 140.256454,167.613678 140.256454,165.285141 
	C140.836670,165.221313 141.416901,165.157486 141.997116,165.093643 
	C142.684631,167.035950 143.694702,168.930740 143.989304,170.930923 
	C144.524567,174.565155 147.070114,175.905701 149.934708,175.487717 
	C151.605362,175.243942 152.967941,172.888748 154.698318,171.268967 
	C149.518250,168.445312 146.327866,160.615311 148.890137,157.934082 
	C152.508423,154.147827 150.910370,150.188049 149.136139,146.952621 
	C148.179062,145.207291 144.561356,144.835022 142.078064,144.052658 
	C141.004974,143.714600 139.765091,143.905884 137.679657,143.828110 
M111.317749,150.354645 
	C111.280060,155.348969 111.217873,160.343231 111.209961,165.337616 
	C111.195129,174.701065 111.850319,175.226151 121.384949,175.872513 
	C125.482033,176.150253 127.814796,174.953857 127.880150,170.119507 
	C126.349312,169.810593 124.779427,169.365646 123.180214,169.194031 
	C117.368233,168.570251 117.266060,168.458008 118.740501,162.253662 
	C119.628014,162.153717 120.732674,162.303513 121.534004,161.879730 
	C123.017944,161.094955 124.324448,159.974701 125.704842,158.994156 
	C124.438271,158.064407 123.178162,156.355728 121.903969,156.345154 
	C117.359383,156.307465 117.631210,153.862854 118.410240,150.540817 
	C122.636383,150.524323 128.042130,152.770386 128.488998,145.577347 
	C116.579689,141.994110 115.985779,142.134140 111.317749,150.354645 
M190.997391,154.552170 
	C190.997543,153.055145 190.931564,151.554550 191.012054,150.061859 
	C191.163635,147.250366 191.077759,144.827133 187.452667,144.069687 
	C183.802856,143.307114 182.209091,145.032608 181.763840,148.013748 
	C182.861359,150.459686 183.842484,152.926193 184.096527,155.465439 
	C184.426041,158.759155 184.174911,162.110809 184.176651,165.437515 
	C184.181412,174.473389 185.116089,175.300735 193.982224,175.863174 
	C198.623581,176.157623 200.383591,174.399673 199.779144,169.952209 
	C190.997437,167.845764 190.997421,167.845764 190.997375,158.520065 
	C190.997375,157.522049 190.997375,156.524048 190.997391,154.552170 
M55.016087,171.906189 
	C56.434906,176.747238 60.752228,174.951096 63.850182,175.535477 
	C68.966476,176.500549 69.732162,175.566330 69.596550,169.915955 
	C68.537315,169.685303 67.404480,169.164551 66.319359,169.249954 
	C61.700619,169.613525 60.693657,167.206696 60.947754,163.150696 
	C61.217175,158.850128 60.965538,154.519043 61.026005,150.202469 
	C61.064148,147.479401 61.289799,144.954803 57.620251,144.099564 
	C53.910511,143.234970 52.488480,145.235748 52.024704,147.934265 
	C53.338318,150.600967 54.475742,153.308167 54.675144,156.082779 
	C55.031406,161.039993 54.821831,166.037888 55.016087,171.906189 
M74.824226,154.825562 
	C74.823921,160.136871 74.812119,165.448196 74.828667,170.759460 
	C74.835831,173.056854 74.378937,175.598938 77.961914,175.773285 
	C81.808571,175.960449 81.104881,173.250702 81.114487,171.025497 
	C81.145309,163.888550 80.930511,156.743790 81.208801,149.617584 
	C81.346786,146.083923 80.128197,144.402954 76.713188,143.929642 
	C73.191963,143.441574 71.483681,144.993668 71.000992,148.186523 
	C71.442001,148.111740 71.883018,148.036957 72.324028,147.962189 
	C73.157745,149.948105 73.991463,151.934006 74.824226,154.825562 
M85.967644,212.525757 
	C86.351181,211.121170 86.566139,209.641296 87.152878,208.327454 
	C88.429688,205.468384 88.153008,203.008728 85.308212,201.472382 
	C80.373413,198.807327 76.209541,201.305038 76.192383,206.778656 
	C76.186630,208.611832 75.980621,210.477142 76.253616,212.268723 
	C76.499481,213.882141 77.275604,215.414734 77.817856,216.982986 
	C78.935204,215.762314 80.052544,214.541641 80.894585,213.621735 
	C82.859688,214.837524 85.188164,216.278122 87.516640,217.718719 
	C87.850510,217.254089 88.184387,216.789459 88.518257,216.324829 
	C87.814499,215.239883 87.110748,214.154938 85.967644,212.525757 
M66.480392,215.033127 
	C67.760330,215.773376 69.040268,216.513626 70.320206,217.253860 
	C70.678322,216.866547 71.036430,216.479233 71.394539,216.091904 
	C69.761963,211.621231 68.366333,207.042862 66.402855,202.722565 
	C65.323730,200.348145 62.674633,199.761444 61.376980,202.372742 
	C59.154049,206.846024 57.629848,211.666534 55.545834,217.026459 
	C59.701782,216.029816 62.781872,215.291183 66.480392,215.033127 
M188.442322,216.944534 
	C190.262543,216.944199 192.125977,217.183762 193.889099,216.866333 
	C195.258713,216.619766 196.503235,215.678284 197.803345,215.045670 
	C196.583435,214.330902 195.376404,213.023697 194.141571,212.996887 
	C185.706299,212.813675 177.263367,212.814011 168.827988,212.993362 
	C167.603775,213.019379 166.406601,214.317734 165.196915,215.027328 
	C166.495804,215.666138 167.778275,216.814224 169.096375,216.856689 
	C175.212601,217.053711 181.338715,216.944168 188.442322,216.944534 
M125.606834,217.731033 
	C128.309448,217.518478 130.549011,216.940414 129.230896,213.180695 
	C125.228691,214.072433 121.413673,213.774902 121.442955,208.993576 
	C121.473068,204.073334 125.307777,203.608185 129.664062,204.863968 
	C129.859085,200.246719 127.120743,199.799072 124.238243,200.371979 
	C120.074493,201.199539 117.557175,203.959610 117.133362,208.275650 
	C116.675140,212.942200 119.245232,215.965073 125.606834,217.731033 
M149.029633,214.207047 
	C150.557526,217.752014 153.877563,218.317780 158.826767,215.541473 
	C156.765182,214.449524 154.958893,213.492783 152.738464,212.316711 
	C154.998810,210.937683 156.590576,209.966553 158.743820,208.652878 
	C156.462387,207.279053 155.092529,206.454163 153.103058,205.256165 
	C155.489441,204.314682 157.008179,203.715500 158.526917,203.116333 
	C158.496368,202.562836 158.465836,202.009338 158.435303,201.455856 
	C155.857925,201.327042 153.153290,200.702332 150.766190,201.314987 
	C149.819427,201.557983 149.302414,204.513336 149.083359,206.294495 
	C148.801468,208.586777 149.015793,210.940094 149.029633,214.207047 
M175.539612,204.269318 
	C181.999298,204.263550 188.460175,204.316910 194.917313,204.185684 
	C195.841949,204.166885 196.748444,203.256134 197.663345,202.758194 
	C196.893707,202.112030 196.140167,200.925644 195.351974,200.902161 
	C186.089310,200.626190 176.821487,200.475601 167.554855,200.466721 
	C166.783005,200.465973 166.009918,201.731827 165.237411,202.409210 
	C166.025726,203.021927 166.766068,204.070465 167.611572,204.163498 
	C169.903412,204.415665 172.239838,204.262421 175.539612,204.269318 
M95.218475,211.415726 
	C95.946686,213.304688 96.674904,215.193634 97.403107,217.082596 
	C98.174515,215.217545 99.159019,213.408615 99.668221,211.474533 
	C100.464371,208.450592 100.938797,205.341949 101.660400,201.711304 
	C99.170586,201.711304 95.682724,201.711304 93.185844,201.711304 
	C93.959717,205.056870 94.589478,207.779449 95.218475,211.415726 
M138.844269,202.096634 
	C136.835739,200.270111 135.377213,200.785858 135.246506,203.380600 
	C135.023849,207.799561 135.185165,212.237885 135.185165,216.598221 
	C138.598969,216.598221 141.242783,216.598221 144.468338,216.598221 
	C143.782791,215.371765 143.511581,214.396011 143.185532,214.377335 
	C138.757080,214.123657 138.977158,211.051834 139.103149,207.944443 
	C139.170471,206.284531 139.074936,204.618027 138.844269,202.096634 
M109.550537,201.217621 
	C109.092606,206.185364 108.614288,211.151611 108.249939,216.126205 
	C108.235077,216.329041 109.490128,216.959579 109.809402,216.779770 
	C110.402824,216.445587 111.142776,215.647156 111.123741,215.064804 
	C110.975029,210.515274 110.660210,205.971176 109.550537,201.217621 
z"/>
<path fill="#E9DEC2" opacity="1.000000" stroke="none" 
	d="
M195.999512,68.015762 
	C185.085861,68.015549 185.085861,68.015549 185.085892,57.547012 
	C185.085892,53.624317 185.085892,49.701626 185.085892,45.146038 
	C192.585526,53.216431 199.530182,60.689602 206.338211,68.015747 
	C203.877151,68.015747 200.182678,68.015747 195.999512,68.015762 
z"/>
<path fill="#E9DEC2" opacity="1.000000" stroke="none" 
	d="
M41.434273,223.455780 
	C38.020935,231.055466 34.070690,232.670471 25.429604,229.384827 
	C27.347095,228.414093 28.528833,227.457413 29.843746,227.210785 
	C36.332073,225.993866 37.085648,224.013809 33.176998,218.707764 
	C34.902313,219.027359 36.844395,219.681854 38.783989,219.674576 
	C41.429905,219.664658 42.654663,220.348373 41.434273,223.455780 
z"/>
<path fill="#A9BDB3" opacity="1.000000" stroke="none" 
	d="
M206.812607,314.802826 
	C207.445053,314.261200 208.156998,314.058014 209.225311,313.776733 
	C209.747467,315.228394 209.913239,316.758118 210.079025,318.287842 
	C209.609024,318.446136 209.139023,318.604431 208.669022,318.762726 
	C208.076721,317.555573 207.484406,316.348419 206.812607,314.802826 
z"/>
<path fill="#6E9CA5" opacity="1.000000" stroke="none" 
	d="
M105.010948,67.031143 
	C108.141830,72.762527 110.982925,78.280495 114.250465,84.626678 
	C115.978409,82.327576 117.646500,80.554016 118.798576,78.492134 
	C122.337128,72.159157 127.162872,67.661423 134.245270,65.326355 
	C140.223846,63.355225 145.872116,60.401379 151.773865,58.165718 
	C153.414215,57.544331 155.436340,57.930740 157.283310,57.854801 
	C156.735413,59.734692 156.666229,61.979118 155.559006,63.433071 
	C149.960510,70.784744 143.565231,77.582230 138.485199,85.259476 
	C134.433350,91.382889 129.873596,96.566284 122.108032,101.221489 
	C127.057518,105.684204 131.665543,109.829910 136.260422,113.990128 
	C137.123123,114.771217 137.953217,115.590996 138.763977,116.426285 
	C140.893494,118.620216 144.194107,120.596855 141.648605,124.267860 
	C139.577087,127.255280 136.661118,127.812103 133.431992,125.686401 
	C133.039749,125.428185 132.218445,125.694466 131.639877,125.865807 
	C123.916069,128.153107 117.718643,124.463669 116.892136,116.399727 
	C116.386803,111.469498 114.332657,109.050369 109.530678,108.251801 
	C102.640961,107.106033 97.870438,103.576233 97.239685,95.988586 
	C97.177330,95.238525 96.843788,94.059700 96.337662,93.868050 
	C91.564835,92.060760 92.495827,87.852692 93.650826,84.990181 
	C94.319313,83.333412 98.163284,82.957520 100.578918,82.007118 
	C100.727966,81.948486 100.883743,81.906921 101.304268,81.770531 
	C101.591125,72.650162 94.522263,66.543678 91.317909,58.865376 
	C91.624084,58.509964 91.930267,58.154556 92.236443,57.799145 
	C96.398018,60.805340 100.559593,63.811539 105.010948,67.031143 
z"/>
<path fill="#88AAAB" opacity="1.000000" stroke="none" 
	d="
M166.000000,285.178406 
	C175.484619,285.178467 184.472061,285.065033 193.451111,285.288452 
	C194.965805,285.326172 196.444351,286.816925 197.939590,287.636322 
	C196.390747,288.395630 194.843689,289.814087 193.292801,289.818298 
	C149.035538,289.937683 104.777817,289.942322 60.520634,289.811401 
	C58.816433,289.806366 57.116753,288.274658 55.414967,287.454346 
	C57.169762,286.695465 58.922119,285.281067 60.679703,285.274536 
	C95.619438,285.144897 130.559784,285.178009 166.000000,285.178406 
z"/>
<path fill="#78A1A7" opacity="1.000000" stroke="none" 
	d="
M128.000000,277.760254 
	C105.507080,277.760223 83.514168,277.762329 61.521252,277.756531 
	C60.189758,277.756165 58.759899,277.977478 57.560257,277.562469 
	C56.715084,277.270081 55.847401,276.149689 55.643551,275.250763 
	C55.531605,274.757111 56.664970,273.626617 57.431454,273.374207 
	C58.491707,273.025024 59.735352,273.205994 60.900471,273.205872 
	C104.886299,273.201385 148.872131,273.201874 192.857956,273.204498 
	C193.857254,273.204559 194.937149,273.008514 195.831467,273.323761 
	C196.609085,273.597900 197.799515,274.594238 197.707108,275.046722 
	C197.518295,275.971436 196.741226,277.215149 195.932037,277.475891 
	C194.559830,277.917999 192.975159,277.752014 191.479736,277.752838 
	C170.486496,277.764252 149.493240,277.760559 128.000000,277.760254 
z"/>
<path fill="#7BA3A8" opacity="1.000000" stroke="none" 
	d="
M88.999969,253.700424 
	C79.018112,253.700150 69.534264,253.795197 60.056602,253.595963 
	C58.667446,253.566757 57.307709,252.137909 55.934349,251.356689 
	C57.304630,250.581131 58.672779,249.132416 60.045502,249.128067 
	C98.471573,249.006378 136.898163,249.008926 175.324326,249.114838 
	C176.790817,249.118881 178.253906,250.352631 179.718597,251.013351 
	C178.091293,251.908875 176.468292,253.576080 174.836014,253.585220 
	C146.391342,253.744537 117.945534,253.700531 88.999969,253.700424 
z"/>
<path fill="#6F9DA6" opacity="1.000000" stroke="none" 
	d="
M114.000000,224.945709 
	C140.307175,224.945709 166.114349,224.944702 191.921524,224.948929 
	C193.252853,224.949142 194.638245,224.780975 195.894943,225.099533 
	C196.632263,225.286423 197.629105,226.262634 197.655579,226.918274 
	C197.680817,227.543594 196.706253,228.552124 195.977707,228.783920 
	C194.912491,229.122833 193.674484,228.942368 192.510117,228.942474 
	C148.721161,228.946732 104.932220,228.946503 61.143272,228.945068 
	C60.144466,228.945038 59.027184,229.199524 58.180050,228.835388 
	C57.326675,228.468552 56.741703,227.477295 56.039127,226.759644 
	C56.711872,226.172821 57.307144,225.252975 58.074860,225.074371 
	C59.342026,224.779587 60.720566,224.948318 62.052174,224.948044 
	C79.201447,224.944565 96.350723,224.945755 114.000000,224.945709 
z"/>
<path fill="#7BA3A8" opacity="1.000000" stroke="none" 
	d="
M155.000000,297.893188 
	C168.154465,297.894135 180.809753,297.829742 193.462311,297.985535 
	C194.918228,298.003418 196.359055,299.248657 197.806870,299.924866 
	C196.376205,300.610535 194.946976,301.891968 193.514664,301.895416 
	C149.224274,302.001953 104.933510,302.006287 60.643173,301.888855 
	C59.104786,301.884766 57.570122,300.473389 56.033722,299.717957 
	C57.552662,299.109985 59.069874,297.976562 60.590805,297.971558 
	C91.893616,297.868286 123.196846,297.893555 155.000000,297.893188 
z"/>
<path fill="#78A1A7" opacity="1.000000" stroke="none" 
	d="
M170.000000,241.032715 
	C133.874100,241.032715 98.248207,241.032990 62.622311,241.031372 
	C61.290676,241.031311 59.868244,241.298676 58.655689,240.913666 
	C57.657673,240.596786 56.908569,239.495941 56.049156,238.742523 
	C56.910583,238.161453 57.702423,237.326111 58.651760,237.066345 
	C59.737793,236.769165 60.963818,236.976746 62.129017,236.976715 
	C105.246338,236.975647 148.363663,236.975922 191.480988,236.976074 
	C191.980408,236.976074 192.532043,236.837692 192.969940,237.001999 
	C194.599945,237.613617 196.192581,238.324814 197.799225,238.998627 
	C196.190903,239.676407 194.597717,240.893906 192.971680,240.939499 
	C185.486130,241.149414 177.991425,241.032440 170.000000,241.032715 
z"/>
<path fill="#719DA6" opacity="1.000000" stroke="none" 
	d="
M89.025879,164.531281 
	C89.028793,160.580765 89.238846,157.063950 88.947449,153.589172 
	C88.780708,151.600891 87.798309,149.681000 86.611649,147.721436 
	C86.722672,144.051254 88.601540,142.393585 92.616447,143.832581 
	C93.679375,144.213547 94.917938,144.156342 96.079689,144.201431 
	C104.602844,144.532257 107.897247,150.208176 104.875702,155.830551 
	C105.360100,161.405457 106.158195,165.234314 105.898872,168.990158 
	C105.589256,173.474335 101.598541,176.020538 97.060120,175.471237 
	C93.760422,175.071869 90.447678,174.779572 87.149353,174.370163 
	C86.523323,174.292450 85.937660,173.889572 84.641304,173.347168 
	C86.163315,170.441589 87.593102,167.712097 89.025879,164.531281 
M100.077492,164.998459 
	C98.970749,163.802200 97.863998,162.605942 96.757248,161.409683 
	C96.255264,161.674759 95.753273,161.939835 95.251289,162.204910 
	C95.992645,164.449615 96.734001,166.694305 97.475372,168.938995 
	C98.360870,167.889542 99.246368,166.840073 100.077492,164.998459 
z"/>
<path fill="#719DA6" opacity="1.000000" stroke="none" 
	d="
M167.321396,143.875732 
	C175.821503,145.519226 176.814957,146.694275 176.831116,154.727570 
	C176.837814,158.059189 176.596893,161.413284 176.911514,164.714951 
	C177.140335,167.116241 178.096039,169.448257 178.727661,171.811157 
	C179.233521,172.146271 179.739365,172.481384 180.245224,172.816483 
	C178.370605,173.776031 176.507385,175.497467 174.618851,175.525681 
	C171.371048,175.574188 169.620377,173.494934 170.014648,169.895889 
	C170.167297,168.502396 169.595673,167.029556 169.354004,165.592865 
	C167.971527,166.093964 165.713440,166.276855 165.391327,167.163300 
	C164.747238,168.935623 165.538437,171.201874 165.002747,173.051529 
	C164.678192,174.172104 163.053513,175.450302 161.869507,175.612839 
	C160.978638,175.735153 159.125793,174.315430 158.973755,173.376160 
	C158.416229,169.931519 159.722839,166.026505 155.990036,163.504578 
	C155.735321,163.332504 155.728287,162.502411 155.875916,162.070602 
	C157.671494,156.818726 159.501266,151.578354 161.357513,146.347504 
	C162.330002,143.607071 164.335007,143.034119 167.321396,143.875732 
M165.141037,152.870224 
	C165.145004,154.183105 164.826385,155.611862 165.244614,156.775909 
	C165.653976,157.915298 166.814148,158.784943 167.644760,159.772995 
	C168.460449,158.810944 169.674118,157.962708 169.990128,156.857758 
	C170.376770,155.505829 170.444061,153.740250 169.878571,152.507004 
	C168.781906,150.115250 167.088531,148.633194 165.141037,152.870224 
z"/>
<path fill="#6F9DA6" opacity="1.000000" stroke="none" 
	d="
M138.140320,143.842407 
	C139.765091,143.905884 141.004974,143.714600 142.078064,144.052658 
	C144.561356,144.835022 148.179062,145.207291 149.136139,146.952621 
	C150.910370,150.188049 152.508423,154.147827 148.890137,157.934082 
	C146.327866,160.615311 149.518250,168.445312 154.698318,171.268967 
	C152.967941,172.888748 151.605362,175.243942 149.934708,175.487717 
	C147.070114,175.905701 144.524567,174.565155 143.989304,170.930923 
	C143.694702,168.930740 142.684631,167.035950 141.997116,165.093643 
	C141.416901,165.157486 140.836670,165.221313 140.256454,165.285141 
	C140.256454,167.613678 140.598648,170.014587 140.127182,172.243393 
	C139.847672,173.564682 138.479828,175.292282 137.257629,175.644547 
	C134.748260,176.367767 133.819794,174.714432 133.860565,172.216660 
	C133.958313,166.226013 134.101440,160.221283 133.777710,154.246552 
	C133.663269,152.134399 132.247055,150.092789 130.864502,148.119156 
	C130.884354,143.627655 134.127670,143.469254 138.140320,143.842407 
M140.226425,153.496796 
	C140.674500,154.582794 141.122559,155.668808 141.570633,156.754807 
	C142.393814,155.858139 143.805176,155.013763 143.890732,154.051498 
	C143.996750,152.858887 143.004166,151.568604 142.486145,150.320511 
	C141.735641,151.116608 140.985138,151.912689 140.226425,153.496796 
z"/>
<path fill="#749FA7" opacity="1.000000" stroke="none" 
	d="
M111.432686,149.958374 
	C115.985779,142.134140 116.579689,141.994110 128.488998,145.577347 
	C128.042130,152.770386 122.636383,150.524323 118.410240,150.540817 
	C117.631210,153.862854 117.359383,156.307465 121.903969,156.345154 
	C123.178162,156.355728 124.438271,158.064407 125.704849,158.994171 
	C124.324448,159.974701 123.017944,161.094955 121.534004,161.879730 
	C120.732674,162.303513 119.628014,162.153717 118.740501,162.253662 
	C117.266060,168.458008 117.368233,168.570251 123.180214,169.194031 
	C124.779427,169.365646 126.349312,169.810593 127.880150,170.119507 
	C127.814796,174.953857 125.482033,176.150253 121.384949,175.872513 
	C111.850319,175.226151 111.195129,174.701065 111.209961,165.337616 
	C111.217873,160.343231 111.280060,155.348969 111.432686,149.958374 
z"/>
<path fill="#749FA7" opacity="1.000000" stroke="none" 
	d="
M190.997375,155.039093 
	C190.997375,156.524048 190.997375,157.522049 190.997375,158.520065 
	C190.997421,167.845764 190.997437,167.845764 199.779144,169.952209 
	C200.383591,174.399673 198.623581,176.157623 193.982224,175.863174 
	C185.116089,175.300735 184.181412,174.473389 184.176651,165.437515 
	C184.174911,162.110809 184.426041,158.759155 184.096527,155.465439 
	C183.842484,152.926193 182.861359,150.459686 181.763840,148.013748 
	C182.209091,145.032608 183.802856,143.307114 187.452667,144.069687 
	C191.077759,144.827133 191.163635,147.250366 191.012054,150.061859 
	C190.931564,151.554550 190.997543,153.055145 190.997375,155.039093 
z"/>
<path fill="#6F9DA6" opacity="1.000000" stroke="none" 
	d="
M54.932453,171.462479 
	C54.821831,166.037888 55.031406,161.039993 54.675144,156.082779 
	C54.475742,153.308167 53.338318,150.600967 52.024704,147.934265 
	C52.488480,145.235748 53.910511,143.234970 57.620251,144.099564 
	C61.289799,144.954803 61.064148,147.479401 61.026005,150.202469 
	C60.965538,154.519043 61.217175,158.850128 60.947754,163.150696 
	C60.693657,167.206696 61.700619,169.613525 66.319359,169.249954 
	C67.404480,169.164551 68.537315,169.685303 69.596550,169.915955 
	C69.732162,175.566330 68.966476,176.500549 63.850182,175.535477 
	C60.752228,174.951096 56.434906,176.747238 54.932453,171.462479 
z"/>
<path fill="#6E9CA5" opacity="1.000000" stroke="none" 
	d="
M74.824707,154.372742 
	C73.991463,151.934006 73.157745,149.948105 72.324028,147.962189 
	C71.883018,148.036957 71.442001,148.111740 71.000992,148.186523 
	C71.483681,144.993668 73.191963,143.441574 76.713188,143.929642 
	C80.128197,144.402954 81.346786,146.083923 81.208801,149.617584 
	C80.930511,156.743790 81.145309,163.888550 81.114487,171.025497 
	C81.104881,173.250702 81.808571,175.960449 77.961914,175.773285 
	C74.378937,175.598938 74.835831,173.056854 74.828667,170.759460 
	C74.812119,165.448196 74.823921,160.136871 74.824707,154.372742 
z"/>
<path fill="#7BA3A8" opacity="1.000000" stroke="none" 
	d="
M86.187317,212.797882 
	C87.110748,214.154938 87.814499,215.239883 88.518257,216.324829 
	C88.184387,216.789459 87.850510,217.254089 87.516640,217.718719 
	C85.188164,216.278122 82.859688,214.837524 80.894585,213.621735 
	C80.052544,214.541641 78.935204,215.762314 77.817856,216.982986 
	C77.275604,215.414734 76.499481,213.882141 76.253616,212.268723 
	C75.980621,210.477142 76.186630,208.611832 76.192383,206.778656 
	C76.209541,201.305038 80.373413,198.807327 85.308212,201.472382 
	C88.153008,203.008728 88.429688,205.468384 87.152878,208.327454 
	C86.566139,209.641296 86.351181,211.121170 86.187317,212.797882 
z"/>
<path fill="#7BA3A8" opacity="1.000000" stroke="none" 
	d="
M66.171173,214.792847 
	C62.781872,215.291183 59.701782,216.029816 55.545834,217.026459 
	C57.629848,211.666534 59.154049,206.846024 61.376980,202.372742 
	C62.674633,199.761444 65.323730,200.348145 66.402855,202.722565 
	C68.366333,207.042862 69.761963,211.621231 71.394539,216.091904 
	C71.036430,216.479233 70.678322,216.866547 70.320206,217.253860 
	C69.040268,216.513626 67.760330,215.773376 66.171173,214.792847 
z"/>
<path fill="#7BA3A8" opacity="1.000000" stroke="none" 
	d="
M187.951813,216.944458 
	C181.338715,216.944168 175.212601,217.053711 169.096375,216.856689 
	C167.778275,216.814224 166.495804,215.666138 165.196930,215.027344 
	C166.406601,214.317734 167.603775,213.019379 168.827988,212.993362 
	C177.263367,212.814011 185.706299,212.813675 194.141571,212.996887 
	C195.376404,213.023697 196.583435,214.330902 197.803345,215.045670 
	C196.503235,215.678284 195.258713,216.619766 193.889099,216.866333 
	C192.125977,217.183762 190.262543,216.944199 187.951813,216.944458 
z"/>
<path fill="#7BA3A8" opacity="1.000000" stroke="none" 
	d="
M125.232895,217.677551 
	C119.245232,215.965073 116.675140,212.942200 117.133362,208.275650 
	C117.557175,203.959610 120.074493,201.199539 124.238243,200.371979 
	C127.120743,199.799072 129.859085,200.246719 129.664062,204.863968 
	C125.307777,203.608185 121.473068,204.073334 121.442955,208.993576 
	C121.413673,213.774902 125.228691,214.072433 129.230896,213.180695 
	C130.549011,216.940414 128.309448,217.518478 125.232895,217.677551 
z"/>
<path fill="#7BA3A8" opacity="1.000000" stroke="none" 
	d="
M149.023010,213.737091 
	C149.015793,210.940094 148.801468,208.586777 149.083359,206.294495 
	C149.302414,204.513336 149.819427,201.557983 150.766190,201.314987 
	C153.153290,200.702332 155.857925,201.327042 158.435303,201.455856 
	C158.465836,202.009338 158.496368,202.562836 158.526917,203.116333 
	C157.008179,203.715500 155.489441,204.314682 153.103058,205.256165 
	C155.092529,206.454163 156.462387,207.279053 158.743820,208.652878 
	C156.590576,209.966553 154.998810,210.937683 152.738464,212.316711 
	C154.958893,213.492783 156.765182,214.449524 158.826767,215.541473 
	C153.877563,218.317780 150.557526,217.752014 149.023010,213.737091 
z"/>
<path fill="#719DA6" opacity="1.000000" stroke="none" 
	d="
M175.049103,204.269623 
	C172.239838,204.262421 169.903412,204.415665 167.611572,204.163498 
	C166.766068,204.070465 166.025726,203.021927 165.237411,202.409210 
	C166.009918,201.731827 166.783005,200.465973 167.554855,200.466721 
	C176.821487,200.475601 186.089310,200.626190 195.351974,200.902161 
	C196.140167,200.925644 196.893707,202.112030 197.663345,202.758194 
	C196.748444,203.256134 195.841949,204.166885 194.917313,204.185684 
	C188.460175,204.316910 181.999298,204.263550 175.049103,204.269623 
z"/>
<path fill="#7BA3A8" opacity="1.000000" stroke="none" 
	d="
M95.218857,210.958862 
	C94.589478,207.779449 93.959717,205.056870 93.185844,201.711304 
	C95.682724,201.711304 99.170586,201.711304 101.660400,201.711304 
	C100.938797,205.341949 100.464371,208.450592 99.668221,211.474533 
	C99.159019,213.408615 98.174515,215.217545 97.403114,217.082596 
	C96.674904,215.193634 95.946686,213.304688 95.218857,210.958862 
z"/>
<path fill="#7BA3A8" opacity="1.000000" stroke="none" 
	d="
M138.948578,202.525574 
	C139.074936,204.618027 139.170471,206.284531 139.103149,207.944443 
	C138.977158,211.051834 138.757080,214.123657 143.185532,214.377335 
	C143.511581,214.396011 143.782791,215.371765 144.468338,216.598221 
	C141.242783,216.598221 138.598969,216.598221 135.185165,216.598221 
	C135.185165,212.237885 135.023849,207.799561 135.246506,203.380600 
	C135.377213,200.785858 136.835739,200.270111 138.948578,202.525574 
z"/>
<path fill="#6E9CA5" opacity="1.000000" stroke="none" 
	d="
M109.973602,201.321503 
	C110.660210,205.971176 110.975029,210.515274 111.123741,215.064804 
	C111.142776,215.647156 110.402824,216.445587 109.809402,216.779770 
	C109.490128,216.959579 108.235077,216.329041 108.249939,216.126205 
	C108.614288,211.151611 109.092606,206.185364 109.973602,201.321503 
z"/>
<path fill="#E9DEC2" opacity="1.000000" stroke="none" 
	d="
M100.104683,165.394531 
	C99.246368,166.840073 98.360870,167.889542 97.475365,168.938995 
	C96.734001,166.694305 95.992645,164.449615 95.251289,162.204910 
	C95.753273,161.939835 96.255264,161.674759 96.757248,161.409683 
	C97.863998,162.605942 98.970749,163.802200 100.104683,165.394531 
z"/>
<path fill="#E9DEC2" opacity="1.000000" stroke="none" 
	d="
M165.160950,152.457748 
	C167.088531,148.633194 168.781906,150.115250 169.878571,152.507004 
	C170.444061,153.740250 170.376770,155.505829 169.990128,156.857758 
	C169.674118,157.962708 168.460449,158.810944 167.644760,159.772995 
	C166.814148,158.784943 165.653976,157.915298 165.244614,156.775909 
	C164.826385,155.611862 165.145004,154.183105 165.160950,152.457748 
z"/>
<path fill="#E9DEC2" opacity="1.000000" stroke="none" 
	d="
M140.230530,153.102783 
	C140.985138,151.912689 141.735641,151.116608 142.486145,150.320511 
	C143.004166,151.568604 143.996750,152.858887 143.890732,154.051498 
	C143.805176,155.013763 142.393814,155.858139 141.570633,156.754807 
	C141.122559,155.668808 140.674500,154.582794 140.230530,153.102783 
z"/>
</svg>